<svg t="1733452396352" class="icon" viewBox="0 0 1024 1024" version="1.1" xmlns="http://www.w3.org/2000/svg" p-id="1531" width="200" height="200"><path d="M366.848 532.992a253.44 253.44 0 0 0 138.752 40.896c50.56 0 97.536-14.848 136.96-40.448a412.288 412.288 0 0 0-136.96-23.552c-48.64 0-95.36 8.128-138.752 23.04z" p-id="1532"></path><path d="M366.848 532.992A416.832 416.832 0 0 0 85.312 928c0 17.088 14.912 32 32 32 19.2 0 32-14.912 32-32 0-70.4 21.312-140.8 64-198.4 108.8-162.112 330.688-204.8 492.8-93.888 1.088 1.088 2.112 1.6 3.2 2.176a11.136 11.136 0 0 1 3.2 2.112c14.912 8.512 34.112 0 42.688-14.912 8.512-14.976 0-34.176-14.976-42.688a438.848 438.848 0 0 0-97.664-48.96c-39.424 25.6-86.4 40.448-136.96 40.448a253.44 253.44 0 0 1-138.752-40.96zM906.624 960h-213.312a32.832 32.832 0 0 1-32-32c0-17.088 14.912-32 32-32h213.312c17.088 0 32 14.912 32 32s-14.912 32-32 32z m0-102.4h-213.312a32.832 32.832 0 0 1-32-32c0-17.088 14.912-32 32-32h213.312c17.088 0 32 14.912 32 32s-14.912 32-32 32z m0-102.4h-213.312a32.832 32.832 0 0 1-32-32c0-17.088 14.912-32 32-32h213.312c17.088 0 32 14.912 32 32s-14.912 32-32 32z" p-id="1533"></path><path d="M505.6 64C364.8 64 251.712 179.2 251.712 320c0 89.472 45.696 167.808 115.136 212.992A424.768 424.768 0 0 1 505.6 509.888c46.848 0 92.992 8.128 136.96 23.552a256.512 256.512 0 0 0 116.864-215.552C759.424 177.088 646.4 64 505.6 64zM315.712 317.888A190.272 190.272 0 0 1 505.6 128a190.272 190.272 0 0 1 189.824 189.888A190.272 190.272 0 0 1 505.6 507.712a190.272 190.272 0 0 1-189.888-189.824z" p-id="1534"></path></svg>