<svg t="1733398428005" class="icon" viewBox="0 0 1024 1024" version="1.1" xmlns="http://www.w3.org/2000/svg" p-id="1889" width="200" height="200"><path d="M853.333333 121.904762a73.142857 73.142857 0 0 1 73.142857 73.142857v170.666667a73.142857 73.142857 0 0 1-73.142857 73.142857h-48.761904v390.095238a73.142857 73.142857 0 0 1-73.142858 73.142857H292.571429a73.142857 73.142857 0 0 1-73.142858-73.142857V438.857143H170.666667a73.142857 73.142857 0 0 1-73.142857-73.142857V195.047619a73.142857 73.142857 0 0 1 73.142857-73.142857h682.666666zM292.571429 828.952381h438.857142V316.952381H292.571429v512z m365.714285-121.904762v73.142857H365.714286v-73.142857h292.571428z m195.047619-512H170.666667v170.666667h48.761904v-121.904762h585.142858v121.904762h48.761904V195.047619z" p-id="1890"></path></svg>
