<?xml version="1.0" encoding="utf-8"?>
<!-- Generator: Adobe Illustrator 27.5.0, SVG Export Plug-In . SVG Version: 6.00 Build 0)  -->
<svg version="1.1" id="Layer_1" xmlns="http://www.w3.org/2000/svg" xmlns:xlink="http://www.w3.org/1999/xlink" x="0px" y="0px"
	 viewBox="0 0 1525 322" style="enable-background:new 0 0 1525 322;" xml:space="preserve">
<style type="text/css">
	.st0{fill-rule:evenodd;clip-rule:evenodd;fill:#FFFFFF;}
	.st1{fill:#FFFFFF;}
</style>
<g>
	<path class="st0" d="M178.5,266.8c23,16.5,36.8,36.1,37.1,54.5l0,0.6h55.9l0-0.5c0.2-18,11.2-34.3,35.9-50.9
		c0.1-0.1,0.3-0.2,0.4-0.3l0.8-0.6c0.1-0.1,0.2-0.1,0.3-0.2l0.6-0.4l0-68.4c-1.8,1-3.3,1.9-4.4,2.5l-1.9,1.1
		c-10.3,6-18.5,11.1-26.2,16.6l-1,0.7c-12.2,8.8-23.3,18.7-32.5,29.7c-9.2-11-20.2-20.9-32.5-29.7c-8-5.7-16.4-11.1-27.2-17.3
		l-1.6-0.9c-0.9-0.5-2.2-1.3-3.8-2.2l-17.3-9.8c-2.8-1.6-5.2-3-6.8-3.9l-1.7-1c-11.1-6.4-20.4-12.1-29.7-18.3
		c-17-11.4-27.5-23.6-33.2-36.2c-3.9-8.6-5.3-16.4-5.3-24.6c0-28.3,23-51.3,51.4-51.3c28.4,0,51.4,23,51.4,51.3
		c0,8.1-1.4,16-5.3,24.6c-5,11-13.7,21.7-27.1,31.8c2.4,1.4,4.9,2.9,7.5,4.4l1.6,0.9l1.2,0.7l13.2,7.5c7.2,4,11,6.2,13.3,7.5
		l2.9,1.7c3.7,2.1,7,4.1,10.2,6.1l1.3,0.8c11.8-11.8,20.7-24.6,26.8-38.1c7.6-16.6,10.3-32.2,10.3-47.7
		C243,48.7,195.9,1.1,137.4,0.1l-1.7,0l-1.8,0C75.6,1.1,28.5,48.7,28.5,107.3c0,15.6,2.8,31.2,10.3,47.7
		c10.1,22.1,27.4,42.2,52.9,59.3c10.7,7.2,21.4,13.7,33.9,20.9l0.4,0.2c1,0.5,2.3,1.3,3.8,2.2l18.6,10.5c2,1.1,3.7,2.1,4.9,2.8
		l1.9,1.1C164.9,257.7,172.1,262.2,178.5,266.8z M80.2,231.6c-5.9-4-11.4-8.1-16.6-12.4l-0.2,0.2c-1,0.7-2,1.4-3,2.1
		c-15.8,11.4-29.7,24.7-40.1,39.7C7.3,279.7,0,300.2,0,321.9h55.9c0-18.5,13.8-38.4,37.1-55.1c5.7-4.1,12-8.1,20.1-12.8l1.7-1
		l-1.1-0.6C101,245,90.5,238.5,80.2,231.6z"/>
	<g>
		<path class="st1" d="M443.1,232c-1.3,0-2.4-0.5-3.4-1.4c-1-0.9-1.5-2.1-1.5-3.5V100.4c0-1.4,0.5-2.6,1.5-3.5
			c1-0.9,2.1-1.4,3.4-1.4h18.1c2,0,3.4,0.5,4.4,1.6c1,1,1.7,1.8,2,2.3l35.9,66.1l36.3-66.1c0.3-0.5,0.9-1.3,1.9-2.3
			c1-1,2.4-1.6,4.4-1.6h18.1c1.4,0,2.6,0.5,3.5,1.4c0.9,0.9,1.4,2.1,1.4,3.5v126.7c0,1.4-0.5,2.6-1.4,3.5c-0.9,0.9-2.1,1.4-3.5,1.4
			h-19.9c-1.3,0-2.4-0.5-3.3-1.4c-0.9-0.9-1.4-2.1-1.4-3.5v-78.8l-24.8,46.4c-0.7,1.2-1.5,2.2-2.5,3.1c-1,0.9-2.4,1.4-4.1,1.4h-9.2
			c-1.7,0-3.1-0.5-4.1-1.4c-1-0.9-1.9-2-2.5-3.1l-24.8-46.4v78.8c0,1.4-0.5,2.6-1.4,3.5c-0.9,0.9-2,1.4-3.3,1.4H443.1z"/>
		<path class="st1" d="M647.1,233.9c-11.4,0-21.5-1.9-30-5.8s-15.2-9.8-19.9-17.7c-4.7-8-7-18.2-7-30.5v-79.6c0-1.4,0.5-2.6,1.4-3.5
			c0.9-0.9,2.1-1.4,3.5-1.4h21.3c1.4,0,2.6,0.5,3.5,1.4c0.9,0.9,1.4,2.1,1.4,3.5v79.4c0,9.6,2.3,16.8,6.8,21.5
			c4.5,4.7,10.9,7,19.1,7c8.1,0,14.4-2.3,18.9-7c4.5-4.7,6.8-11.8,6.8-21.5v-79.4c0-1.4,0.5-2.6,1.5-3.5c1-0.9,2.1-1.4,3.4-1.4h21.5
			c1.3,0,2.4,0.5,3.3,1.4c0.9,0.9,1.4,2.1,1.4,3.5v79.6c0,12.4-2.3,22.5-7,30.5c-4.7,8-11.2,13.9-19.7,17.7
			C668.6,232,658.6,233.9,647.1,233.9z"/>
		<path class="st1" d="M730.3,232c-1.4,0-2.6-0.5-3.5-1.4c-0.9-0.9-1.4-2.1-1.4-3.5V100.4c0-1.4,0.5-2.6,1.4-3.5
			c0.9-0.9,2.1-1.4,3.5-1.4h21.6c1.4,0,2.6,0.5,3.5,1.4c0.9,0.9,1.4,2.1,1.4,3.5v105.5h60.4c1.4,0,2.6,0.5,3.5,1.4
			c0.9,0.9,1.4,2.1,1.4,3.5v16.4c0,1.4-0.5,2.6-1.4,3.5c-0.9,0.9-2.1,1.4-3.5,1.4H730.3z"/>
		<path class="st1" d="M846.3,232c-1.4,0-2.6-0.5-3.5-1.4c-0.9-0.9-1.4-2.1-1.4-3.5V122.6h-35.5c-1.3,0-2.4-0.5-3.3-1.4
			c-0.9-0.9-1.4-2-1.4-3.3v-17.5c0-1.4,0.5-2.6,1.4-3.5c0.9-0.9,2-1.4,3.3-1.4h102.2c1.4,0,2.6,0.5,3.5,1.4c0.9,0.9,1.4,2.1,1.4,3.5
			v17.5c0,1.3-0.5,2.4-1.4,3.3c-0.9,0.9-2.1,1.4-3.5,1.4h-35.3v104.5c0,1.4-0.5,2.6-1.4,3.5c-0.9,0.9-2.1,1.4-3.5,1.4H846.3z"/>
		<path class="st1" d="M937.9,232c-1.4,0-2.6-0.5-3.5-1.4c-0.9-0.9-1.4-2.1-1.4-3.5V100.4c0-1.4,0.5-2.6,1.4-3.5
			c0.9-0.9,2.1-1.4,3.5-1.4h22c1.4,0,2.6,0.5,3.5,1.4c0.9,0.9,1.4,2.1,1.4,3.5v126.7c0,1.4-0.5,2.6-1.4,3.5
			c-0.9,0.9-2.1,1.4-3.5,1.4H937.9z"/>
		<path class="st1" d="M991.7,232c-1.4,0-2.6-0.5-3.5-1.4c-0.9-0.9-1.4-2.1-1.4-3.5V100.4c0-1.4,0.5-2.6,1.4-3.5
			c0.9-0.9,2.1-1.4,3.5-1.4h21.6c1.4,0,2.6,0.5,3.5,1.4c0.9,0.9,1.4,2.1,1.4,3.5v105.5h60.5c1.4,0,2.6,0.5,3.5,1.4
			c0.9,0.9,1.4,2.1,1.4,3.5v16.4c0,1.4-0.5,2.6-1.4,3.5c-0.9,0.9-2.1,1.4-3.5,1.4H991.7z"/>
		<path class="st1" d="M1153.4,233.9c-11.8,0-22-2-30.6-5.9c-8.6-3.9-15.3-9.8-20.1-17.6c-4.8-7.9-7.4-17.8-7.8-29.7
			c-0.1-5.6-0.2-11.1-0.2-16.7c0-5.5,0.1-11.1,0.2-16.9c0.4-11.7,3-21.5,7.9-29.5s11.6-14,20.3-18c8.6-4,18.8-6,30.3-6
			c11.4,0,21.5,2,30.1,6c8.6,4,15.4,10,20.4,18c4.9,8,7.5,17.8,7.8,29.5c0.3,5.7,0.4,11.3,0.4,16.9c0,5.5-0.1,11.1-0.4,16.7
			c-0.4,12-3,21.9-7.8,29.7c-4.8,7.9-11.5,13.7-20.1,17.6C1175.2,232,1165.1,233.9,1153.4,233.9z M1153.4,208.8
			c7.5,0,13.7-2.3,18.6-6.9c4.9-4.6,7.4-12,7.7-22.1c0.3-5.7,0.4-11.1,0.4-16.1c0-5-0.1-10.3-0.4-15.9c-0.1-6.8-1.4-12.3-3.7-16.6
			c-2.3-4.3-5.4-7.4-9.3-9.5c-3.8-2-8.3-3-13.4-3c-5.1,0-9.6,1-13.5,3c-3.9,2-7,5.2-9.3,9.5c-2.3,4.3-3.5,9.8-3.8,16.6
			c-0.1,5.6-0.2,10.9-0.2,15.9c0,5,0.1,10.4,0.2,16.1c0.4,10.1,3,17.5,7.8,22.1C1139.4,206.5,1145.7,208.8,1153.4,208.8z"/>
		<path class="st1" d="M1284.3,233.9c-12.2,0-22.7-2-31.3-6.1c-8.6-4.1-15.3-10.1-20.1-17.9c-4.7-7.9-7.3-17.4-7.7-28.6
			c-0.1-5.6-0.2-11.6-0.2-17.9c0-6.4,0.1-12.4,0.2-18.1c0.4-10.9,3-20.2,7.7-27.9c4.7-7.7,11.5-13.6,20.3-17.6
			c8.8-4.1,19.1-6.1,31.1-6.1c9.6,0,18.1,1.2,25.4,3.7c7.3,2.5,13.4,5.7,18.3,9.7c4.9,4,8.7,8.3,11.3,13c2.6,4.7,4,9.2,4.1,13.5
			c0,1.2-0.4,2.2-1.2,3c-0.8,0.8-1.8,1.3-3.1,1.3h-24.2c-1.3,0-2.3-0.3-3-0.8c-0.7-0.5-1.3-1.3-1.9-2.3c-0.9-2.3-2.4-4.7-4.4-7.1
			c-2-2.4-4.7-4.5-8.1-6.1c-3.4-1.7-7.8-2.5-13.3-2.5c-8.2,0-14.7,2.1-19.4,6.4c-4.7,4.3-7.3,11.3-7.7,21.1
			c-0.4,11.2-0.4,22.6,0,34.1c0.4,10.1,3,17.4,7.9,21.8c4.9,4.4,11.4,6.6,19.6,6.6c5.3,0,10.1-0.9,14.3-2.8c4.2-1.9,7.6-4.8,10-8.9
			c2.5-4,3.7-9.2,3.7-15.4v-4.9h-21.3c-1.3,0-2.4-0.5-3.3-1.5c-0.9-1-1.4-2.1-1.4-3.4v-12.5c0-1.4,0.5-2.6,1.4-3.5
			c0.9-0.9,2-1.4,3.3-1.4h47.8c1.4,0,2.6,0.5,3.5,1.4c0.9,0.9,1.4,2.1,1.4,3.5v21.3c0,11.2-2.4,20.7-7.3,28.7
			c-4.9,7.9-11.8,14-20.9,18.2C1307,231.8,1296.4,233.9,1284.3,233.9z"/>
		<path class="st1" d="M1366,232c-1.4,0-2.6-0.5-3.5-1.4c-0.9-0.9-1.4-2.1-1.4-3.5V100.4c0-1.4,0.5-2.6,1.4-3.5
			c0.9-0.9,2.1-1.4,3.5-1.4h22c1.4,0,2.6,0.5,3.5,1.4c0.9,0.9,1.4,2.1,1.4,3.5v126.7c0,1.4-0.5,2.6-1.4,3.5
			c-0.9,0.9-2.1,1.4-3.5,1.4H1366z"/>
		<path class="st1" d="M1419.7,232c-1.4,0-2.6-0.5-3.5-1.4c-0.9-0.9-1.4-2.1-1.4-3.5V100.4c0-1.4,0.5-2.6,1.4-3.5
			c0.9-0.9,2.1-1.4,3.5-1.4h17.7c2,0,3.4,0.5,4.3,1.4c0.9,0.9,1.5,1.6,1.8,2.1l52.1,81.3v-80c0-1.4,0.5-2.6,1.4-3.5
			c0.9-0.9,2-1.4,3.3-1.4h19.9c1.4,0,2.6,0.5,3.5,1.4c0.9,0.9,1.4,2.1,1.4,3.5v126.7c0,1.3-0.5,2.4-1.4,3.4c-0.9,1-2.1,1.5-3.5,1.5
			h-17.9c-2,0-3.3-0.5-4.2-1.5c-0.8-1-1.5-1.7-1.9-2l-51.9-78.8v77.4c0,1.4-0.5,2.6-1.4,3.5c-0.9,0.9-2.1,1.4-3.5,1.4H1419.7z"/>
	</g>
</g>
</svg>
