<svg width="16" height="17" viewBox="0 0 16 17" fill="none" xmlns="http://www.w3.org/2000/svg">
<path d="M15.5 10H0.5C0.2 10 0 10.2 0 10.5C0 10.8 0.2 11 0.5 11H14.3L10.7 14.6C10.5 14.8 10.5 15.1 10.7 15.3C10.7 15.5 10.9 15.5 11 15.5C11.1 15.5 11.3 15.5 11.4 15.4L15.9 10.9C16 10.7 16 10.5 16 10.3C15.9 10.1 15.7 10 15.5 10Z" fill="#231815"/>
<path d="M0.5 6.99987H15.5C15.8 6.99987 16 6.79987 16 6.49987C16 6.19987 15.8 5.99987 15.5 5.99987H1.7L5.3 2.39987C5.5 2.19987 5.5 1.89987 5.3 1.69987C5.1 1.49987 4.8 1.49987 4.6 1.59987L0.1 6.09987C0 6.29987 0 6.49987 0 6.69987C0.1 6.89987 0.3 6.99987 0.5 6.99987Z" fill="#231815"/>
</svg>
